# xmcd CD database file
#
# Track frame offsets:
#	150
#	18175
#	38192
#	56632
#	86432
#	106335
#	124087
#	156910
#	181030
#	210365
#	236405
#	255140
#	271082
#	301810
#
# Disc length: 4059 seconds
#
# Revision: 0
# Processed by: cddbd v1.5.1PL0 Copyright (c) Steve Scherf et al.
# Submitted via: CDex 1.51
#
DISCID=9f0fd90e
DTITLE=Beau Joque and The Zydeco Rollers - Check it out, lock it in, crank it up!
DYEAR=1998
DGENRE=Blues
TTITLE0=Come go with me
TTITLE1=Keep a knockin'
TTITLE2=Slide and Dip it
TTITLE3=Going to the country
TTITLE4=Why you wanna make me crazy?
TTITLE5=Like a pot of neckbones
TTITLE6=She wants to sell my monkey
TTITLE7=tighten up
TTITLE8=Check it out, lock it in
TTITLE9=What you gonna do?
TTITLE10=Tequila
TTITLE11=Hi rollers ya'll
TTITLE12=Slide and Dip it (Party Mix)
TTITLE13=Dont know
EXTD=YEAR: 1998
EXTT0=
EXTT1=
EXTT2=
EXTT3=
EXTT4=
EXTT5=
EXTT6=
EXTT7=
EXTT8=
EXTT9=
EXTT10=
EXTT11=
EXTT12=
EXTT13=
PLAYORDER=
